<?xml version="1.0" encoding="UTF-8" standalone="no"?>
<svg id="svg3460" xmlns:rdf="http://www.w3.org/1999/02/22-rdf-syntax-ns#" xmlns="http://www.w3.org/2000/svg" viewBox="0 0 278 199.99999" width="278" version="1.1" xmlns:cc="http://creativecommons.org/ns#" height="200" xmlns:dc="http://purl.org/dc/elements/1.1/">
 <metadata id="metadata3465">
  <rdf:RDF>
   <cc:Work rdf:about="">
    <dc:format>image/svg+xml</dc:format>
    <dc:type rdf:resource="http://purl.org/dc/dcmitype/StillImage"/>
    <dc:title/>
   </cc:Work>
  </rdf:RDF>
 </metadata>
 <g id="layer1" transform="translate(0 -852.36)">
  <g id="g3600" transform="matrix(1.0126 0 0 1.0126 -9.5767 -7.8484)">
   <g id="g3932" fill="#fd6720" transform="matrix(1.0588 0 0 1.0588 -198.52 634.27)">
    <path id="path3843" d="m278.84 234.73 4.2484 50 42.652 21.569-0.49505-52.941z"/>
    <path id="path3845" d="m336.03 252.7 37.255-22.222-3.9216 49.02-33.908 26.417z"/>
    <path id="path3847" d="m329.82 243.22 37.908-21.242-44.771-15.033-39.869 18.301z"/>
   </g>
   <g id="text2996" transform="matrix(1.1666 0 0 1.1666 -311.78 744.91)">
    <g id="g3592" transform="translate(42.863 68.841)">
     <path id="path3967" fill="#fd6720" d="m256.94 186.15c-0.816-0.00002-2.28 0.096-4.392 0.288-2.064 0.19198-3.216 0.28798-3.456 0.288-0.336-0.00002-0.504-0.26402-0.504-0.792v-0.864-0.432c0-0.096 0.024-0.19202 0.072-0.288 0.048-0.048 0.12-0.096 0.216-0.144 0.096-0.00002 0.24-0.00002 0.432 0 1.776-0.048 2.88-0.60002 3.312-1.656 0.48-1.008 0.72-3.384 0.72-7.128v-27.648c0.048-2.832-0.12-4.584-0.504-5.256-0.336-0.71998-1.344-1.224-3.024-1.512-0.288 0.00002-0.432-0.26398-0.432-0.792v-0.504c0-0.33597 0.024-0.52797 0.072-0.576 0.048-0.096 0.216-0.19197 0.504-0.288l11.16-4.608 0.432 0.144v1.008l-0.072 1.44c-0.00001 0.28803-0.024 0.57603-0.072 0.864-0.00001 0.24003-0.00001 0.43203 0 0.576l-0.072 0.288v1.44l7.92-5.184 0.288-0.072h0.216l0.792-0.072c0.23998-0.048 0.59998-0.072 1.08-0.072 4.368 0.00003 7.728 1.752 10.08 5.256 2.16 3.072 3.24 6.6 3.24 10.584-0.00003 5.232-1.752 9.552-5.256 12.96-1.584 1.536-3.504 2.784-5.76 3.744-2.208 0.912-4.368 1.368-6.48 1.368-0.76801 0-2.256-0.048-4.464-0.144h-0.288c-0.52801 0-0.88801 0.12-1.08 0.36-0.19201 0.288-0.28801 0.84-0.288 1.656v5.04c-0.00001 3.696 0.23999 6.048 0.72 7.056 0.47999 1.056 1.584 1.632 3.312 1.728 0.19199-0.00002 0.31199-0.00002 0.36 0 0.096 0.048 0.16799 0.096 0.216 0.144 0.096 0.096 0.14399 0.19198 0.144 0.288 0.048 0.096 0.072 0.23998 0.072 0.432v0.864c-0.00001 0.52798-0.19201 0.79198-0.576 0.792-0.19201-0.00002-1.44-0.12002-3.744-0.36-1.536-0.14402-3.168-0.21602-4.896-0.216m4.392-43.704v19.368c-0.00001 0.144 0.28799 0.456 0.864 0.936 1.776 1.44 2.928 2.28 3.456 2.52 0.57599 0.24 1.584 0.36 3.024 0.36 2.4 0 4.248-1.008 5.544-3.024 1.296-2.064 1.944-5.016 1.944-8.856-0.00002-4.224-0.76802-7.44-2.304-9.648-1.536-2.256-3.744-3.384-6.624-3.384-0.96001 0.00002-1.656 0.072-2.088 0.216-0.43201 0.096-1.44 0.48002-3.024 1.152l-0.792 0.36"/>
     <path id="path3969" fill="#fd6720" d="m325.39 167.94-0.72-0.072c-0.43204-0.048-0.98404-0.096-1.656-0.144-0.62404-0.048-1.296-0.096-2.016-0.144-0.67203-0.048-1.32-0.096-1.944-0.144-0.62403-0.048-1.056-0.072-1.296-0.072-1.872 0-3.912 0.144-6.12 0.432-0.86402 0.096-1.416 0.144-1.656 0.144-0.57602 0-0.86402-0.336-0.864-1.008v-1.008c-0.00002-0.24 0.072-0.384 0.216-0.432 0.14398-0.096 0.50398-0.168 1.08-0.216 0.47998 0 0.88798-0.12 1.224-0.36 0.33598-0.24 0.50398-0.528 0.504-0.864-0.00002-0.384-0.50402-1.416-1.512-3.096l-5.688-10.152-3.456 2.088v3.744c-0.00001 3.504 0.21599 5.832 0.648 6.984 0.43198 1.104 1.32 1.704 2.664 1.8 0.43198 0 0.69598 0.048 0.792 0.144 0.096 0.048 0.14398 0.264 0.144 0.648v0.864c-0.00002 0.576-0.19202 0.864-0.576 0.864-0.33602 0-0.62402-0.024-0.864-0.072-1.872-0.336-4.104-0.504-6.696-0.504-1.68 0-4.008 0.168-6.984 0.504l-1.296 0.072c-0.384 0-0.576-0.288-0.576-0.864v-0.864c0-0.48 0.24-0.744 0.72-0.792 1.776-0.096 2.88-0.648 3.312-1.656 0.47999-1.056 0.71999-3.432 0.72-7.128v-31.752c0.048-2.784-0.096-4.488-0.432-5.112-0.28801-0.67195-1.2-1.176-2.736-1.512-0.192 0.00005-0.336 0.00005-0.432 0-0.096-0.048-0.168-0.096-0.216-0.144-0.048-0.096-0.096-0.19195-0.144-0.288v-0.432-0.504c0-0.33595 0.024-0.52795 0.072-0.576 0.048-0.096 0.216-0.19195 0.504-0.288l11.16-4.608 0.432 0.072v3.816c-0.048 3.072-0.12001 6.576-0.216 10.512v23.832c3.168-2.16 5.832-4.248 7.992-6.264s3.24-3.408 3.24-4.176c-0.00003-0.91197-1.2-1.32-3.6-1.224-0.33602 0.00003-0.55202-0.048-0.648-0.144-0.096-0.14397-0.14402-0.40797-0.144-0.792v-0.864c-0.00002-0.33597 0.024-0.55197 0.072-0.648 0.096-0.096 0.31198-0.14397 0.648-0.144 0.43198 0.00003 0.76798 0.024 1.008 0.072 1.728 0.19203 3.672 0.28803 5.832 0.288 1.632 0.00003 3.696-0.11997 6.192-0.36h0.792c0.43196 0.00003 0.64796 0.26403 0.648 0.792v0.864c-0.00004 0.43203-0.072 0.69603-0.216 0.792-0.096 0.048-0.52804 0.072-1.296 0.072-1.44 0.096-2.76 0.57603-3.96 1.44-1.2 0.81602-3.48 2.832-6.84 6.048l9.72 15.912c1.104 1.728 1.872 2.808 2.304 3.24 0.47996 0.432 1.176 0.672 2.088 0.72 0.57596-0.048 0.86396 0.168 0.864 0.648v1.008c-0.00004 0.432-0.048 0.696-0.144 0.792-0.096 0.144-0.31204 0.216-0.648 0.216"/>
     <path id="path3971" fill="#fd6720" d="m344.45 163.19c0.62399 0 1.92-0.048 3.888-0.144 2.016-0.144 3.24-0.216 3.672-0.216 3.696 0 6.648 0.912 8.856 2.736 2.208 1.776 3.312 4.176 3.312 7.2-0.00003 4.32-1.824 7.704-5.472 10.152-3.792 2.496-8.064 3.744-12.816 3.744-2.688-0.00002-5.4-0.43202-8.136-1.296-2.688-0.81602-4.632-1.824-5.832-3.024-1.152-1.152-1.704-2.52-1.656-4.104l0.072-3.24c2.88-1.68 4.944-2.808 6.192-3.384l1.224-0.72c-2.832-0.91201-4.704-1.848-5.616-2.808-0.912-0.912-1.368-2.424-1.368-4.536 0-0.72 0.072-1.344 0.216-1.872l7.632-5.544c-2.496-0.76799-4.32-1.824-5.472-3.168-1.68-1.824-2.52-4.008-2.52-6.552 0-3.264 1.416-6.048 4.248-8.352 2.88-2.304 6.36-3.456 10.44-3.456 2.544 0.00003 4.896 0.50403 7.056 1.512 1.824 0.81603 2.976 1.296 3.456 1.44 0.47998 0.14403 1.128 0.21603 1.944 0.216h5.688c0.52797 0.00003 0.86397 0.072 1.008 0.216 0.14397 0.096 0.21597 0.38403 0.216 0.864v2.376c-0.00003 0.43202-0.072 0.72002-0.216 0.864-0.14403 0.096-0.48003 0.14402-1.008 0.144h-4.248c0.19197 1.344 0.28797 2.376 0.288 3.096-0.00003 3.312-1.392 6.096-4.176 8.352-2.784 2.208-6.24 3.312-10.368 3.312-1.536 0.00001-2.76-0.11999-3.672-0.36-2.4 1.008-3.6 2.304-3.6 3.888-0.00001 1.776 2.256 2.664 6.768 2.664m0.072-26.064c-1.92 0.00003-3.384 0.67203-4.392 2.016-1.008 1.296-1.512 3.144-1.512 5.544-0.00001 3.024 0.62399 5.424 1.872 7.2 1.296 1.728 3.048 2.592 5.256 2.592 3.84 0.00001 5.76-2.352 5.76-7.056-0.00002-3.216-0.62402-5.736-1.872-7.56s-2.952-2.736-5.112-2.736m-3.24 34.056c-2.832 1.152-4.248 3.024-4.248 5.616 0 2.016 0.91199 3.696 2.736 5.04s4.104 2.016 6.84 2.016c3.12-0.00002 5.664-0.72002 7.632-2.16 2.016-1.392 3.024-3.216 3.024-5.472-0.00002-3.552-2.52-5.328-7.56-5.328-1.392-0.00001-4.2 0.096-8.424 0.288"/>
     <path id="path3973" d="m389.39 136.83-0.072 6.48c-0.00002 0.38402-0.072 0.62402-0.216 0.72-0.096 0.096-0.40802 0.14402-0.936 0.144-0.67202 0.00002-1.104-0.072-1.296-0.216-0.14402-0.19198-0.38402-0.74398-0.72-1.656-0.52801-1.392-1.344-2.544-2.448-3.456-1.104-0.91197-2.256-1.368-3.456-1.368-1.104 0.00003-2.04 0.36003-2.808 1.08-0.72001 0.67203-1.08 1.512-1.08 2.52-0.00001 0.81602 0.28799 1.56 0.864 2.232 0.62399 0.67202 1.896 1.656 3.816 2.952 3.504 2.496 5.904 4.608 7.2 6.336 1.296 1.68 1.944 3.648 1.944 5.904-0.00002 2.784-1.032 5.088-3.096 6.912-2.112 2.064-5.112 3.096-9 3.096-1.968 0-3.6-0.216-4.896-0.648-1.248-0.384-2.664-1.128-4.248-2.232l-0.144-6.768c0-0.47999 0.6-0.71999 1.8-0.72 0.48 0.00001 0.816 0.26401 1.008 0.792 0.624 2.064 1.584 3.72 2.88 4.968 1.344 1.2 2.808 1.8 4.392 1.8 1.296 0 2.352-0.36 3.168-1.08 0.81599-0.768 1.224-1.752 1.224-2.952-0.00001-1.2-0.43201-2.28-1.296-3.24-0.81601-1.008-2.328-2.256-4.536-3.744-3.072-2.064-5.184-3.84-6.336-5.328-1.104-1.536-1.656-3.288-1.656-5.256 0-2.688 1.08-4.944 3.24-6.768 2.208-1.824 4.92-2.736 8.136-2.736 2.544 0.00003 5.4 0.74403 8.568 2.232"/>
     <path id="path3975" d="m407.18 134.24 0.216 0.144 0.072 9.36c0.14398-0.19198 0.35998-0.47998 0.648-0.864 0.28798-0.43198 0.47998-0.76798 0.576-1.008 1.632-2.544 3.12-4.368 4.464-5.472 1.392-1.152 2.784-1.728 4.176-1.728 1.44 0.00003 2.568 0.43203 3.384 1.296 0.86397 0.86403 1.296 2.04 1.296 3.528-0.00003 1.344-0.38403 2.4-1.152 3.168-0.72003 0.72002-1.728 1.08-3.024 1.08-0.76802 0.00002-2.088-0.38398-3.96-1.152-0.57602-0.23998-1.08-0.35998-1.512-0.36-0.52802 0.00002-0.98402 0.14402-1.368 0.432-0.38402 0.28802-1.104 1.056-2.16 2.304-0.96002 1.104-1.44 1.776-1.44 2.016v9.648c-0.00001 3.696 0.23998 6.072 0.72 7.128 0.47998 1.008 1.584 1.56 3.312 1.656 0.33598 0.048 0.55198 0.12 0.648 0.216 0.096 0.048 0.14398 0.24 0.144 0.576v0.864c-0.00002 0.576-0.21602 0.864-0.648 0.864l-1.008-0.072c-2.256-0.336-4.632-0.504-7.128-0.504-2.64 0-5.04 0.168-7.2 0.504-0.288 0.048-0.648 0.072-1.08 0.072-0.336 0-0.504-0.288-0.504-0.864v-0.864c0-0.48 0.24-0.744 0.72-0.792 1.776-0.096 2.88-0.648 3.312-1.656 0.47999-1.056 0.71999-3.432 0.72-7.128v-8.856c0.048-2.832-0.12001-4.584-0.504-5.256-0.33601-0.71998-1.344-1.224-3.024-1.512-0.288 0.00002-0.432-0.26398-0.432-0.792v-0.504c0-0.33597 0.024-0.52797 0.072-0.576 0.048-0.096 0.216-0.19197 0.504-0.288l11.16-4.608"/>
     <path id="path3977" d="m441.39 134.6c2.784 0.00003 5.04 0.55203 6.768 1.656 1.776 1.056 2.664 2.448 2.664 4.176-0.00002 1.2-0.36002 2.184-1.08 2.952-0.67202 0.72002-1.56 1.08-2.664 1.08-1.488 0.00002-2.664-0.59998-3.528-1.8-0.19202-0.23998-0.72002-1.152-1.584-2.736-0.81601-1.392-1.92-2.088-3.312-2.088-1.968 0.00003-3.648 1.056-5.04 3.168s-2.088 4.68-2.088 7.704c0 3.696 1.128 6.864 3.384 9.504s4.944 3.96 8.064 3.96c1.392 0 2.472-0.192 3.24-0.576 0.81598-0.384 1.992-1.272 3.528-2.664 0.096-0.096 0.19198-0.14399 0.288-0.144 0.19198 0.00001 0.52798 0.19201 1.008 0.576 0.47998 0.33601 0.71998 0.576 0.72 0.72-0.00002 0.288-0.43202 1.104-1.296 2.448-1.392 2.112-3 3.648-4.824 4.608-1.776 0.912-3.984 1.368-6.624 1.368-4.464 0-8.04-1.416-10.728-4.248-2.64-2.832-3.96-6.624-3.96-11.376 0-5.136 1.632-9.456 4.896-12.96 3.312-3.552 7.368-5.328 12.168-5.328"/>
    </g>
   </g>
  </g>
 </g>
</svg>
