<?xml version="1.0" encoding="UTF-8" standalone="no"?>
<svg id="svg3673" xmlns:rdf="http://www.w3.org/1999/02/22-rdf-syntax-ns#" xmlns="http://www.w3.org/2000/svg" viewBox="0 0 132 40.000001" width="132" version="1.1" xmlns:cc="http://creativecommons.org/ns#" height="40" xmlns:dc="http://purl.org/dc/elements/1.1/">
 <metadata id="metadata3678">
  <rdf:RDF>
   <cc:Work rdf:about="">
    <dc:format>image/svg+xml</dc:format>
    <dc:type rdf:resource="http://purl.org/dc/dcmitype/StillImage"/>
    <dc:title/>
   </cc:Work>
  </rdf:RDF>
 </metadata>
 <g id="layer1" transform="translate(0 -1012.4)">
  <g id="g3932" fill="#fd6720" transform="matrix(.34941 0 0 .34941 -94.431 942.62)">
   <path id="path3843" d="m278.84 234.73 4.2484 50 42.652 21.569-0.49505-52.941z"/>
   <path id="path3845" d="m336.03 252.7 37.255-22.222-3.9216 49.02-33.908 26.417z"/>
   <path id="path3847" d="m329.82 243.22 37.908-21.242-44.771-15.033-39.869 18.301z"/>
  </g>
  <path id="path3967" fill="#fd6720" d="m43.883 1048.5c-0.35586 0-0.99431 0.042-1.9154 0.1256-0.90011 0.084-1.4025 0.1255-1.5072 0.1256-0.14653-0.0001-0.2198-0.1152-0.2198-0.3454v-0.3768-0.1884c0-0.042 0.01047-0.084 0.0314-0.1256 0.02093-0.021 0.05233-0.042 0.0942-0.063h0.1884c0.77452-0.021 1.256-0.2617 1.4444-0.7222 0.20933-0.4396 0.31399-1.4758 0.31399-3.1085v-12.057c0.02093-1.235-0.05233-1.999-0.2198-2.2921-0.14653-0.314-0.58612-0.5338-1.3188-0.6594-0.1256 0-0.1884-0.1151-0.1884-0.3454v-0.2198c0-0.1465 0.01047-0.2302 0.0314-0.2512 0.02093-0.042 0.0942-0.084 0.2198-0.1256l4.8669-2.0095 0.1884 0.063v0.4396l-0.0314 0.6279c-0.000004 0.1257-0.01047 0.2513-0.0314 0.3768-0.000004 0.1047-0.000004 0.1884 0 0.2512l-0.0314 0.1256v0.628l3.4539-2.2607 0.1256-0.031h0.0942l0.34539-0.032c0.10466-0.021 0.26165-0.031 0.47099-0.031 1.9049 0 3.3702 0.7641 4.3959 2.2922 0.94197 1.3397 1.413 2.8782 1.413 4.6157-0.000013 2.2816-0.76406 4.1656-2.2922 5.6518-0.6908 0.6699-1.5281 1.2141-2.5119 1.6328-0.96292 0.3977-1.9049 0.5966-2.8259 0.5966-0.33493 0-0.98385-0.021-1.9468-0.063h-0.1256c-0.23027 0-0.38726 0.052-0.47099 0.157-0.08374 0.1256-0.1256 0.3663-0.1256 0.7222v2.1979c-0.000004 1.6118 0.10466 2.6375 0.31399 3.0771 0.20932 0.4606 0.69078 0.7118 1.4444 0.7536h0.157c0.04187 0.021 0.07326 0.042 0.0942 0.063 0.04187 0.042 0.06279 0.084 0.0628 0.1256 0.02093 0.042 0.0314 0.1047 0.0314 0.1884v0.3768c-0.000004 0.2303-0.08374 0.3454-0.2512 0.3454-0.08374 0-0.62799-0.052-1.6328-0.157-0.66986-0.063-1.3816-0.094-2.1352-0.094m1.9154-19.059v8.4464c-0.000004 0.063 0.12559 0.1989 0.37679 0.4082 0.77451 0.628 1.2769 0.9944 1.5072 1.099 0.25119 0.1047 0.69078 0.157 1.3188 0.157 1.0466 0 1.8526-0.4396 2.4177-1.3188 0.56518-0.9001 0.84777-2.1874 0.84778-3.8621-0.000009-1.8421-0.33494-3.2446-1.0048-4.2075-0.66986-0.9838-1.6328-1.4757-2.8887-1.4757-0.41866 0-0.72219 0.031-0.91058 0.094-0.1884 0.042-0.62799 0.2093-1.3188 0.5023l-0.34539 0.157"/>
  <path id="path3969" fill="#fd6720" d="m73.736 1040.5-0.31399-0.031c-0.18841-0.021-0.42914-0.042-0.72218-0.063-0.27214-0.021-0.5652-0.042-0.87918-0.063-0.29307-0.021-0.57567-0.042-0.84778-0.063-0.27214-0.021-0.46054-0.031-0.56519-0.031-0.8164 0-1.706 0.063-2.6689 0.1884-0.3768 0.042-0.61753 0.063-0.72218 0.063-0.2512 0-0.3768-0.1465-0.37679-0.4396v-0.4396c-0.000009-0.1046 0.0314-0.1674 0.0942-0.1884 0.06279-0.042 0.21979-0.073 0.47099-0.094 0.20932 0 0.38725-0.052 0.53379-0.157 0.14652-0.1046 0.21979-0.2302 0.2198-0.3768-0.000008-0.1674-0.2198-0.6175-0.65938-1.3501l-2.4805-4.4273-1.5072 0.9106v1.6327c-0.000004 1.5281 0.09419 2.5434 0.28259 3.0457 0.18839 0.4815 0.57565 0.7432 1.1618 0.785 0.18839 0 0.30352 0.021 0.34539 0.063 0.04187 0.021 0.06279 0.1152 0.0628 0.2826v0.3768c-0.000008 0.2512-0.08374 0.3768-0.25119 0.3768-0.14654 0-0.27214-0.01-0.37679-0.031-0.81639-0.1465-1.7898-0.2198-2.9201-0.2198-0.73266 0-1.7479 0.073-3.0457 0.2198l-0.56519 0.031c-0.16746 0-0.2512-0.1256-0.2512-0.3768v-0.3768c0-0.2093 0.10466-0.3244 0.31399-0.3454 0.77452-0.042 1.256-0.2826 1.4444-0.7222 0.20932-0.4605 0.31399-1.4967 0.31399-3.1085v-13.847c0.02093-1.2141-0.04187-1.9572-0.1884-2.2293-0.1256-0.2931-0.52332-0.5129-1.1932-0.6594h-0.1884c-0.04187-0.021-0.07327-0.042-0.0942-0.063-0.02093-0.042-0.04187-0.084-0.0628-0.1256v-0.1884-0.2198c0-0.1465 0.01047-0.2302 0.0314-0.2512 0.02093-0.042 0.0942-0.084 0.2198-0.1256l4.8669-2.0095 0.1884 0.031v1.6641c-0.02093 1.3398-0.05234 2.8679-0.0942 4.5843v10.393c1.3816-0.942 2.5433-1.8525 3.4853-2.7317 0.94197-0.8792 1.413-1.4863 1.413-1.8212-0.000013-0.3977-0.52333-0.5756-1.57-0.5338-0.14654 0-0.24074-0.021-0.28259-0.063-0.04187-0.063-0.06281-0.1779-0.0628-0.3454v-0.3768c-0.000008-0.1465 0.01047-0.2407 0.0314-0.2826 0.04187-0.042 0.13606-0.063 0.28259-0.063 0.18839 0.0001 0.33492 0.01 0.43959 0.032 0.75358 0.084 1.6014 0.1256 2.5433 0.1256 0.71171 0 1.6118-0.052 2.7003-0.157h0.34539c0.18838 0 0.28258 0.1151 0.28259 0.3454v0.3767c-0.000017 0.1885-0.0314 0.3036-0.0942 0.3454-0.04187 0.021-0.23028 0.031-0.56519 0.031-0.628 0.042-1.2037 0.2512-1.727 0.6279-0.52334 0.3559-1.5176 1.2351-2.9829 2.6376l4.2389 6.9392c0.48144 0.7536 0.81637 1.2246 1.0048 1.413 0.20931 0.1884 0.51284 0.293 0.91058 0.314 0.25118-0.021 0.37678 0.073 0.37679 0.2826v0.4396c-0.000017 0.1884-0.02093 0.3035-0.0628 0.3454-0.04187 0.063-0.13608 0.094-0.28259 0.094"/>
  <path id="path3971" fill="#fd6720" d="m82.045 1038.4c0.27212 0 0.83731-0.021 1.6956-0.063 0.87917-0.063 1.413-0.094 1.6014-0.094 1.6118 0 2.8992 0.3977 3.8621 1.1932 0.9629 0.7745 1.4444 1.8211 1.4444 3.1399-0.000013 1.8839-0.79546 3.3597-2.3863 4.4273-1.6537 1.0885-3.5167 1.6327-5.5891 1.6328-1.1722-0.0001-2.355-0.1885-3.5481-0.5652-1.1722-0.3559-2.02-0.7955-2.5433-1.3188-0.50239-0.5024-0.74312-1.099-0.72218-1.7898l0.0314-1.4129c1.256-0.7327 2.1561-1.2246 2.7003-1.4758l0.53379-0.314c-1.235-0.3977-2.0514-0.8059-2.4491-1.2246-0.39772-0.3977-0.59659-1.0571-0.59659-1.9781 0-0.314 0.0314-0.5861 0.0942-0.8164l3.3283-2.4177c-1.0885-0.335-1.884-0.7955-2.3863-1.3816-0.73265-0.7955-1.099-1.7479-1.099-2.8573 0-1.4235 0.61752-2.6376 1.8526-3.6424 1.256-1.0047 2.7736-1.5071 4.5529-1.5071 1.1094 0 2.1351 0.2198 3.0771 0.6594 0.79544 0.3558 1.2978 0.5652 1.5072 0.6279 0.20932 0.063 0.49191 0.094 0.84778 0.094h2.4805c0.23025 0.0001 0.37678 0.031 0.43959 0.094 0.06279 0.042 0.09419 0.1675 0.0942 0.3768v1.0362c-0.000013 0.1884-0.0314 0.314-0.0942 0.3768-0.06281 0.042-0.20934 0.063-0.43959 0.063h-1.8526c0.08372 0.5861 0.12558 1.0362 0.1256 1.3502-0.000013 1.4443-0.60707 2.6584-1.8212 3.6423-1.2141 0.9629-2.7213 1.4444-4.5215 1.4443-0.66986 0.0001-1.2036-0.052-1.6014-0.1569-1.0466 0.4395-1.57 1.0047-1.57 1.6955-0.000005 0.7745 0.98384 1.1618 2.9515 1.1618m0.0314-11.367c-0.83732 0.0001-1.4758 0.2931-1.9154 0.8792-0.4396 0.5652-0.65939 1.3711-0.65939 2.4178-0.000005 1.3187 0.27212 2.3654 0.81638 3.1399 0.56518 0.7536 1.3292 1.1304 2.2922 1.1304 1.6746 0 2.5119-1.0257 2.5119-3.0772-0.000009-1.4025-0.27214-2.5014-0.81638-3.2969-0.54426-0.7954-1.2874-1.1931-2.2294-1.1932m-1.413 14.852c-1.235 0.5024-1.8526 1.3188-1.8526 2.4492 0 0.8791 0.39772 1.6118 1.1932 2.1979 0.79544 0.5861 1.7898 0.8792 2.9829 0.8792 1.3606 0 2.4701-0.314 3.3283-0.942 0.87917-0.6071 1.3188-1.4025 1.3188-2.3863-0.000009-1.5491-1.099-2.3236-3.2969-2.3236-0.60706 0-1.8316 0.042-3.6737 0.1256"/>
  <path id="path3973" fill="#fff" d="m101.64 1027-0.0314 2.826c-0.00001 0.1675-0.0314 0.2721-0.0942 0.314-0.0419 0.042-0.17794 0.063-0.40819 0.063-0.29307 0-0.48146-0.031-0.56519-0.094-0.0628-0.084-0.16747-0.3245-0.31399-0.7222-0.23027-0.607-0.58613-1.1094-1.0676-1.5072-0.48146-0.3977-0.98385-0.5965-1.5072-0.5966-0.48146 0.0001-0.88965 0.1571-1.2246 0.471-0.314 0.2931-0.471 0.6594-0.47099 1.099-0.000007 0.3559 0.12559 0.6803 0.37679 0.9734 0.27212 0.2931 0.82684 0.7222 1.6642 1.2874 1.5281 1.0885 2.5747 2.0095 3.1399 2.7631 0.56518 0.7326 0.84777 1.5909 0.84778 2.5747-0.00001 1.2141-0.45007 2.2189-1.3502 3.0144-0.92105 0.9001-2.2294 1.3501-3.9249 1.3501-0.85825 0-1.57-0.094-2.1352-0.2826-0.54426-0.1674-1.1618-0.4919-1.8526-0.9733l-0.0628-2.9516c0-0.2093 0.26166-0.314 0.78498-0.314 0.20933 0 0.35586 0.1152 0.43959 0.3454 0.27213 0.9001 0.69078 1.6223 1.256 2.1666 0.58612 0.5233 1.2246 0.785 1.9154 0.785 0.56518 0 1.0257-0.157 1.3816-0.471 0.35585-0.335 0.53378-0.7641 0.53379-1.2874-0.000004-0.5233-0.1884-0.9943-0.56519-1.413-0.35586-0.4396-1.0152-0.9838-1.9782-1.6327-1.3397-0.9001-2.2608-1.6747-2.7631-2.3236-0.48146-0.6698-0.72218-1.4339-0.72218-2.2921 0-1.1723 0.47099-2.1561 1.413-2.9516 0.96291-0.7954 2.1456-1.1931 3.5481-1.1931 1.1094 0 2.3549 0.3244 3.7365 0.9733"/>
  <path id="path3975" fill="#fff" d="m109.4 1025.8 0.0942 0.063 0.0314 4.0819c0.0628-0.084 0.15699-0.2093 0.2826-0.3768 0.12559-0.1884 0.20932-0.3349 0.25119-0.4396 0.71171-1.1094 1.3606-1.9049 1.9468-2.3863 0.60705-0.5024 1.2141-0.7536 1.8212-0.7536 0.62797 0 1.1199 0.1884 1.4758 0.5652 0.37678 0.3768 0.56517 0.8896 0.56519 1.5385-0.00002 0.5861-0.16748 1.0467-0.50239 1.3816-0.31401 0.314-0.7536 0.471-1.3188 0.471-0.33494 0-0.91059-0.1675-1.727-0.5024-0.2512-0.1047-0.471-0.157-0.65938-0.157-0.23027 0-0.42914 0.063-0.59659 0.1884-0.16747 0.1256-0.48146 0.4605-0.94198 1.0048-0.41867 0.4814-0.62799 0.7745-0.62799 0.8791v4.2076c0 1.6118 0.10466 2.648 0.314 3.1085 0.20932 0.4396 0.69077 0.6803 1.4444 0.7222 0.14652 0.021 0.24071 0.052 0.28259 0.094 0.0419 0.021 0.0628 0.1046 0.0628 0.2512v0.3767c-0.00001 0.2512-0.0942 0.3768-0.2826 0.3768l-0.43959-0.031c-0.98385-0.1465-2.02-0.2198-3.1085-0.2198-1.1513 0-2.198 0.073-3.1399 0.2198-0.1256 0.021-0.2826 0.031-0.47099 0.031-0.14653 0-0.2198-0.1256-0.2198-0.3768v-0.3767c0-0.2094 0.10467-0.3245 0.31399-0.3454 0.77452-0.042 1.256-0.2826 1.4444-0.7222 0.20932-0.4605 0.31398-1.4967 0.31399-3.1085v-3.8622c0.0209-1.235-0.0523-1.999-0.2198-2.2921-0.14653-0.314-0.58612-0.5338-1.3188-0.6594-0.1256 0-0.18839-0.1151-0.18839-0.3454v-0.2198c0-0.1465 0.0104-0.2302 0.0314-0.2512 0.0209-0.042 0.0942-0.084 0.21979-0.1256l4.8669-2.0095"/>
  <path id="path3977" fill="#fff" d="m124.32 1026c1.2141 0 2.1979 0.2407 2.9515 0.7222 0.77451 0.4605 1.1618 1.0675 1.1618 1.8211-0.00001 0.5233-0.15701 0.9525-0.47099 1.2874-0.29307 0.314-0.68033 0.471-1.1618 0.471-0.64892 0-1.1618-0.2617-1.5386-0.785-0.0837-0.1047-0.314-0.5024-0.69079-1.1932-0.35586-0.607-0.83732-0.9105-1.4444-0.9106-0.85825 0.0001-1.5909 0.4606-2.198 1.3816-0.60706 0.9211-0.91058 2.041-0.91058 3.3597 0 1.6119 0.49192 2.9934 1.4758 4.1447 0.98384 1.1513 2.1561 1.727 3.5167 1.727 0.60705 0 1.078-0.084 1.413-0.2512 0.35585-0.1675 0.86871-0.5547 1.5386-1.1618 0.0419-0.042 0.0837-0.063 0.1256-0.063 0.0837 0 0.23025 0.084 0.43959 0.2512 0.20932 0.1466 0.31398 0.2512 0.31399 0.314-0.00001 0.1256-0.1884 0.4815-0.56519 1.0676-0.60706 0.921-1.3083 1.5909-2.1038 2.0095-0.77453 0.3978-1.7374 0.5966-2.8887 0.5966-1.9468 0-3.5063-0.6175-4.6785-1.8525-1.1513-1.2351-1.727-2.8888-1.727-4.9611 0-2.2398 0.71172-4.1238 2.1352-5.6519 1.4444-1.549 3.2132-2.3235 5.3065-2.3235"/>
 </g>
</svg>
